<svg xmlns="http://www.w3.org/2000/svg" viewBox="0 0 26.875 6.75" width="100%" fill="#e94b7d" fill-rule="evenodd" stroke="white" stroke-width=".75" paint-order="stroke" stroke-linejoin="round" stroke-linecap="round" height="150"><defs><path id="A" d="M0 0h26.125v.75H0z"/><path id="B" d="M0 0h1v1h1.5v3.75H0zm1 1.75h.5V4H1z"/><path id="C" d="M0 1h2.5v3.75H0V2.5h1.5v-.75H0zm1 2.25h.5V4H1z"/><path id="D" d="M0 1h1v3h.5V1h1v3.75H0z"/><path id="E" d="M0 0h1v2.5h.5V1h1v3.75h-1v-1.5H1v1.5H0z"/><path id="F" d="M0 1h2.5v1.25h-1v-.5H1v.75h1.5v2.25H0V3.5h1V4h.5v-.75H0z"/><path id="G" d="M0 1h.375V0h1v1h.75v.75h-.75V4h.75v.75H.375v-3H0z"/></defs><use href="#A" x=".375" y=".375"/><use href="#B" x=".375" y="1.625"/><use href="#C" x="3.375" y="1.625"/><use href="#D" x="6.375" y="1.625"/><use href="#E" x="9.375" y="1.625"/><use href="#C" x="12.375" y="1.625"/><use href="#F" x="15.375" y="1.625"/><use href="#G" x="18.375" y="1.625"/><use href="#C" transform="matrix(-1 0 0 -1 23.5 7.375)"/><use href="#D" transform="matrix(-1 0 0 -1 26.5 7.375)"/></svg>